<svg xmlns="http://www.w3.org/2000/svg" width="200" height="25" viewBox="0 0 200 25">
  <defs>
    <style>
      .cls-1 {
        fill: #fff;
        fill-rule: evenodd;
      }
    </style>
  </defs>
  <path id="testlogo" class="cls-1" d="M0,0H200V25H0V0ZM4.479,1.424V23.542H195.521V1.424H4.479Zm189.584,0.59V6.979h-0.521a1.511,1.511,0,0,0-.729-0.9H179.688V10.59c2.763,0.007,6.358.126,8.75-.069a1.375,1.375,0,0,0,.52-0.833h0.625v4.861l-0.625-.035a0.986,0.986,0,0,0-.729-0.868h-8.541v5.243l13.333-.035a0.954,0.954,0,0,0,.833-0.868h0.625v4.931h-0.625a1.119,1.119,0,0,0-.729-0.868H174.167c0-.581.692-0.63,0.937-1.042V3.924c-0.241-.405-0.925-0.445-0.937-1.007l18.646-.035a1.143,1.143,0,0,0,.729-0.868h0.521ZM89.271,2.639a21.11,21.11,0,0,1,10.1,2.049L99.9,4.549,100.1,4.34l0.313,0.069,0.208,0.1L98.229,9.1l-0.312-.069C96.894,7.648,95.9,6.45,92.292,5.972c-5.141-.682-7.364,1.595-6.25,3.056,0.87,1.141,4.782,1.042,7.813,1.458,3,0.412,4.647,1.309,5.625,2.4,2.435,2.707,1.2,6.788-2.812,8.507a16.174,16.174,0,0,1-7.708.9c-3.255-.376-4.871-1.322-6.979-2.083l-0.208.035-0.417.278-0.1-.069-0.417-.174,2.292-4.687,0.208,0.035a11.091,11.091,0,0,1,.521,1.146c0.839,1,3.283,2.082,6.354,2.326,4.585,0.365,7.009-2.12,5.729-3.542S87.479,14.517,85,13.472c-4.854-2.045-4.417-7.77,0-9.861A16.259,16.259,0,0,1,89.271,2.639Zm69.583,0c6.935-.025,8.4,1.675,11.25,2.986l0.209-.035,0.52-.347h0.1c0.861,0.909-1.92,3.2-2.5,4.271h-0.209c-0.278-.325-0.188-0.922-0.521-1.285-1.149-1.255-6.8-3.478-10.937-1.7-5.353,2.3-5.754,8.844-.938,11.493,3.909,2.15,9.5.631,11.563-.972,0.5-.387.2-1.225,0.937-1.562h0.1c0.341,0.727,3.34,3.758,2.5,4.167l-0.1.069h-0.1l-0.625-.347-0.312.069c-2.738,2.113-10.449,4.45-16.354,1.632-7.779-3.712-7.272-14.127.833-17.535A21.543,21.543,0,0,1,158.854,2.639ZM6.25,2.917h6.563c-0.013.6-.778,0.708-1.042,1.25V8.854q0.052,1.059.1,2.118l8.854-6.91C21.009,3.554,19.9,3.485,19.9,2.917h8.438V3.4c-1.589.262-3.723,2.464-4.583,3.125l-5.521,4.028c-0.262.367,2.192,2.578,2.6,3.021l5.417,6.215L27.6,21.111c0.51,0.363,1.217.307,1.25,0.9H20.729c0.034-.544,1.1-0.622.833-1.111L14.9,13.194l-0.208.035-2.917,2.188q0.052,2.812.1,5.625c0.261,0.391.929,0.428,0.938,0.972H6.25c0.009-.562.7-0.6,0.938-1.007V3.924C6.946,3.519,6.263,3.478,6.25,2.917Zm24.688,0c3.643-.009,15.108-0.215,17.083.208,5.943,1.275,4.5,6.954,1.354,8.854,4.323,1.942,5.274,8.488-1.354,9.826-2.7.545-12.794,0.254-17.083,0.243,0.005-.581.692-0.63,0.938-1.042V3.924C31.634,3.519,30.95,3.478,30.938,2.917Zm24.792,0c5.064-.007,13.19-0.336,16.25.417A7.537,7.537,0,0,1,76.25,6.042a9.882,9.882,0,0,1,.417,12.292,7.412,7.412,0,0,1-4.375,3.16c-3.187.84-10.957,0.57-16.563,0.556,0.005-.581.692-0.63,0.938-1.042V3.924C56.425,3.519,55.742,3.478,55.729,2.917Zm47.813,0c6.056-.015,15.642-0.439,18.125.8,3.864,1.926,4.238,8.824-1.25,10.174-2.268.558-7.482,0.4-11.355,0.382v6.458c0.269,0.564,1.026.689,1.042,1.319h-6.562c0-.581.692-0.63,0.937-1.042V3.924C104.238,3.519,103.554,3.478,103.542,2.917Zm28.437,0h7.292c-0.035.683-1.252,0.905-.833,1.7l6.874,13.056q0.834,1.51,1.667,3.021c0.416,0.538,1.347.671,1.354,1.354h-7.6c0.031-.617.8-0.666,1.042-1.181,0.389-.815-1.243-2.918-1.771-3.715h-9.167c-0.377.923-2.253,2.884-1.666,3.819,0.272,0.434,1.04.481,1.041,1.076h-6.979c-0.016-.637.865-0.678,1.25-1.146l1.875-3.542q3.23-6.388,6.458-12.778C133.163,3.822,131.97,3.613,131.979,2.917ZM36.458,6.076v4.41c2.6,0.017,7.577.229,9.375-.139a2.107,2.107,0,0,0,.521-4.028C45.1,5.824,39.057,6.06,36.458,6.076Zm24.792,0V18.889c3.26,0.011,7.082.111,8.854-.382a4.26,4.26,0,0,0,2.708-2.257c1.7-2.512,1.683-8.777-3.125-9.931C68.043,5.925,64,6.065,61.25,6.076Zm47.812,0v5.035c2.683,0.017,7.414.195,9.063-.208a2.426,2.426,0,0,0-.1-4.688C116.381,5.854,111.511,6.061,109.062,6.076Zm26.355,1.771q-1.615,3.333-3.229,6.667h6.562Zm-98.959,5.8v5.243c2.816,0.016,7.939.216,9.688-.208a2.457,2.457,0,0,0,0-4.861C44.447,13.41,39.133,13.63,36.458,13.646Z"/>
</svg>
